<mxfile host="app.diagrams.net" modified="2021-09-15T11:36:05.102Z" agent="5.0 (Macintosh; Intel Mac OS X 10_15_7) AppleWebKit/537.36 (KHTML, like Gecko) Chrome/93.0.4577.63 Safari/537.36" etag="CtzIx5KooStZm3Hl5rHp" version="15.0.6" type="github">
  <diagram id="NEZz5Vlse1z63RhJ1pim" name="Page-1">
    <mxGraphModel dx="1395" dy="740" grid="1" gridSize="10" guides="1" tooltips="1" connect="1" arrows="1" fold="1" page="1" pageScale="1" pageWidth="827" pageHeight="1169" math="0" shadow="0">
      <root>
        <mxCell id="0" />
        <mxCell id="1" parent="0" />
        <mxCell id="AEsn9I8aK7Ieo9FgPlG_-34" value="" style="edgeStyle=none;rounded=0;orthogonalLoop=1;jettySize=auto;html=1;fontColor=#000000;entryX=0;entryY=0.5;entryDx=0;entryDy=0;fillColor=#f5f5f5;strokeColor=#666666;shape=flexArrow;" edge="1" parent="1" source="AEsn9I8aK7Ieo9FgPlG_-16" target="AEsn9I8aK7Ieo9FgPlG_-18">
          <mxGeometry relative="1" as="geometry">
            <mxPoint x="336" y="368" as="targetPoint" />
          </mxGeometry>
        </mxCell>
        <mxCell id="AEsn9I8aK7Ieo9FgPlG_-16" value="" style="rounded=1;whiteSpace=wrap;html=1;fillColor=#dae8fc;strokeColor=#6c8ebf;" vertex="1" parent="1">
          <mxGeometry x="130" y="280" width="160" height="190" as="geometry" />
        </mxCell>
        <mxCell id="AEsn9I8aK7Ieo9FgPlG_-17" value="" style="rounded=1;whiteSpace=wrap;html=1;fillColor=#fff2cc;strokeColor=#d6b656;" vertex="1" parent="1">
          <mxGeometry x="556" y="280" width="160" height="190" as="geometry" />
        </mxCell>
        <mxCell id="AEsn9I8aK7Ieo9FgPlG_-33" value="" style="edgeStyle=none;rounded=0;orthogonalLoop=1;jettySize=auto;html=1;fontColor=#000000;entryX=0;entryY=0.5;entryDx=0;entryDy=0;fillColor=#f5f5f5;strokeColor=#666666;shape=flexArrow;" edge="1" parent="1" source="AEsn9I8aK7Ieo9FgPlG_-18" target="AEsn9I8aK7Ieo9FgPlG_-17">
          <mxGeometry relative="1" as="geometry">
            <mxPoint x="536" y="368" as="targetPoint" />
          </mxGeometry>
        </mxCell>
        <mxCell id="AEsn9I8aK7Ieo9FgPlG_-18" value="" style="rounded=1;whiteSpace=wrap;html=1;fillColor=#d5e8d4;strokeColor=#82b366;" vertex="1" parent="1">
          <mxGeometry x="345" y="280" width="160" height="190" as="geometry" />
        </mxCell>
        <mxCell id="AEsn9I8aK7Ieo9FgPlG_-20" value="" style="html=1;verticalLabelPosition=bottom;align=center;labelBackgroundColor=#ffffff;verticalAlign=top;strokeWidth=2;strokeColor=#0080F0;shadow=0;dashed=0;shape=mxgraph.ios7.icons.credit_card;" vertex="1" parent="1">
          <mxGeometry x="440" y="110" width="30" height="15" as="geometry" />
        </mxCell>
        <mxCell id="AEsn9I8aK7Ieo9FgPlG_-21" value="" style="pointerEvents=1;shadow=0;dashed=0;html=1;strokeColor=none;fillColor=#505050;labelPosition=center;verticalLabelPosition=bottom;verticalAlign=top;outlineConnect=0;align=center;shape=mxgraph.office.concepts.credit_card;" vertex="1" parent="1">
          <mxGeometry x="510" y="99.5" width="55" height="36" as="geometry" />
        </mxCell>
        <mxCell id="AEsn9I8aK7Ieo9FgPlG_-22" value="" style="image;html=1;image=img/lib/clip_art/finance/Credit_Card_128x128.png" vertex="1" parent="1">
          <mxGeometry x="300" y="90" width="80" height="80" as="geometry" />
        </mxCell>
        <mxCell id="AEsn9I8aK7Ieo9FgPlG_-23" value="" style="shape=image;html=1;verticalAlign=top;verticalLabelPosition=bottom;labelBackgroundColor=#ffffff;imageAspect=0;aspect=fixed;image=https://cdn0.iconfinder.com/data/icons/business-collection-2027/60/credit-card-3-128.png" vertex="1" parent="1">
          <mxGeometry x="90" y="66" width="128" height="128" as="geometry" />
        </mxCell>
        <mxCell id="AEsn9I8aK7Ieo9FgPlG_-24" value="" style="shape=image;html=1;verticalAlign=top;verticalLabelPosition=bottom;labelBackgroundColor=#ffffff;imageAspect=0;aspect=fixed;image=https://cdn0.iconfinder.com/data/icons/business-660/512/267_Bank_deposit_cash_money-128.png" vertex="1" parent="1">
          <mxGeometry x="586" y="300" width="100" height="100" as="geometry" />
        </mxCell>
        <mxCell id="AEsn9I8aK7Ieo9FgPlG_-26" value="" style="points=[[0.015,0.015,0],[0.985,0.015,0],[0.985,0.985,0],[0.015,0.985,0],[0.25,0,0],[0.5,0,0],[0.75,0,0],[1,0.25,0],[1,0.5,0],[1,0.75,0],[0.75,1,0],[0.5,1,0],[0.25,1,0],[0,0.75,0],[0,0.5,0],[0,0.25,0]];verticalLabelPosition=bottom;html=1;verticalAlign=top;aspect=fixed;align=center;pointerEvents=1;shape=mxgraph.cisco19.rect;prIcon=l3_switch;fillColor=#d5e8d4;strokeColor=#333333;" vertex="1" parent="1">
          <mxGeometry x="380" y="310" width="90" height="90" as="geometry" />
        </mxCell>
        <mxCell id="AEsn9I8aK7Ieo9FgPlG_-38" value="" style="shape=image;html=1;verticalAlign=top;verticalLabelPosition=bottom;labelBackgroundColor=#ffffff;imageAspect=0;aspect=fixed;image=https://cdn2.iconfinder.com/data/icons/mobile-smart-phone/64/service_repair_phone_mobile_wrench_screw_driver-128.png;fontColor=#808080;strokeColor=#333333;fillColor=#B9E0A5;" vertex="1" parent="1">
          <mxGeometry x="165.5" y="310" width="89" height="89" as="geometry" />
        </mxCell>
        <mxCell id="AEsn9I8aK7Ieo9FgPlG_-39" value="" style="shape=image;html=1;verticalAlign=top;verticalLabelPosition=bottom;labelBackgroundColor=#ffffff;imageAspect=0;aspect=fixed;image=https://cdn2.iconfinder.com/data/icons/ios-7-icons/50/low_battery-128.png;fontColor=#000000;strokeColor=#333333;fillColor=#B9E0A5;" vertex="1" parent="1">
          <mxGeometry x="630" y="20" width="128" height="128" as="geometry" />
        </mxCell>
        <mxCell id="AEsn9I8aK7Ieo9FgPlG_-40" value="" style="shape=image;html=1;verticalAlign=top;verticalLabelPosition=bottom;labelBackgroundColor=#ffffff;imageAspect=0;aspect=fixed;image=https://cdn2.iconfinder.com/data/icons/ios-7-icons/50/low_battery-128.png;fontColor=#000000;strokeColor=#333333;fillColor=#B9E0A5;" vertex="1" parent="1">
          <mxGeometry x="210" width="128" height="128" as="geometry" />
        </mxCell>
        <mxCell id="AEsn9I8aK7Ieo9FgPlG_-55" value="&lt;b&gt;&lt;font style=&quot;font-size: 14px&quot;&gt;CHARGE POINT OPERATORS&lt;/font&gt;&lt;/b&gt;" style="text;html=1;strokeColor=none;fillColor=none;align=center;verticalAlign=middle;whiteSpace=wrap;rounded=0;fontColor=#000000;" vertex="1" parent="1">
          <mxGeometry x="160" y="400" width="100" height="60" as="geometry" />
        </mxCell>
        <mxCell id="AEsn9I8aK7Ieo9FgPlG_-56" value="&lt;b&gt;&lt;font style=&quot;font-size: 14px&quot;&gt;ROAMING PLATFORMS&lt;br&gt;&lt;/font&gt;&lt;/b&gt;" style="text;html=1;strokeColor=none;fillColor=none;align=center;verticalAlign=middle;whiteSpace=wrap;rounded=0;fontColor=#000000;" vertex="1" parent="1">
          <mxGeometry x="375" y="400" width="100" height="60" as="geometry" />
        </mxCell>
        <mxCell id="AEsn9I8aK7Ieo9FgPlG_-57" value="&lt;b&gt;&lt;font style=&quot;font-size: 14px&quot;&gt;MOBILITY SERVICE PROVIDERS&lt;/font&gt;&lt;/b&gt;" style="text;html=1;strokeColor=none;fillColor=none;align=center;verticalAlign=middle;whiteSpace=wrap;rounded=0;fontColor=#000000;" vertex="1" parent="1">
          <mxGeometry x="590" y="399" width="100" height="60" as="geometry" />
        </mxCell>
        <mxCell id="AEsn9I8aK7Ieo9FgPlG_-60" value="" style="endArrow=classic;html=1;fontColor=#000000;edgeStyle=orthogonalEdgeStyle;shape=flexArrow;" edge="1" parent="1">
          <mxGeometry relative="1" as="geometry">
            <mxPoint x="49.06" y="525" as="sourcePoint" />
            <mxPoint x="779" y="395" as="targetPoint" />
            <Array as="points">
              <mxPoint x="49" y="525" />
              <mxPoint x="49" y="225" />
              <mxPoint x="749" y="225" />
            </Array>
          </mxGeometry>
        </mxCell>
        <mxCell id="AEsn9I8aK7Ieo9FgPlG_-61" value="Haupt Stakeholder im Puplic Charging System" style="edgeLabel;resizable=0;html=1;align=center;verticalAlign=middle;fontSize=17;" connectable="0" vertex="1" parent="AEsn9I8aK7Ieo9FgPlG_-60">
          <mxGeometry relative="1" as="geometry" />
        </mxCell>
      </root>
    </mxGraphModel>
  </diagram>
</mxfile>
